<svg width="167" height="45" viewBox="0 0 167 45" fill="none" xmlns="http://www.w3.org/2000/svg">
<g filter="url(#filter0_d_103:2)">
<path d="M10.241 30.659V22.133H23.177V16.694H10.241V7.58H25.039V2.239H4.312V36H25.529V30.659H10.241ZM30.6016 26.984H47.8007V21.79H30.6016V26.984ZM84.004 6.159H85.572V0.867H82.877C76.507 0.867 73.371 4.836 73.371 11.402V13.117H61.513V11.108C61.464 8.315 62.591 6.159 66.462 6.159H68.03V0.867H65.335C58.965 0.867 55.829 4.836 55.829 11.402V13.117H51.468V17.674H55.829V36H61.513V17.674H73.371V36H79.055V17.674H84.151V13.117H79.055V11.108C79.006 8.315 80.133 6.159 84.004 6.159ZM110.278 24.338C110.278 17.184 105.133 12.627 98.5666 12.627C92.0496 12.627 86.5616 17.233 86.5616 24.534C86.5616 31.688 91.7556 36.49 98.6156 36.49C102.781 36.49 106.799 34.726 108.906 31.394L105.133 28.503C103.761 30.365 101.409 31.345 98.9096 31.345C95.5286 31.345 93.0786 29.728 92.4416 26.543H110.131C110.229 25.71 110.278 24.975 110.278 24.338ZM92.4416 22.574C93.1276 19.095 95.5776 17.625 98.6646 17.625C101.85 17.625 104.251 19.438 104.594 22.574H92.4416ZM126.474 36.441C130.443 36.441 133.677 34.677 135.784 32.031L131.717 28.846C130.541 30.267 128.581 31.149 126.572 31.149C122.603 31.149 119.761 28.356 119.761 24.534C119.761 20.663 122.603 17.919 126.572 17.919C128.581 17.919 130.541 18.801 131.717 20.222L135.784 17.037C133.677 14.342 130.443 12.627 126.474 12.627C119.859 12.627 114.028 17.282 114.028 24.534C114.028 31.786 119.859 36.441 126.474 36.441ZM153.212 13.117H148.361V4.689H142.677V13.117H138.561V17.674H142.677V36H148.361V17.674H153.212V13.117ZM159.014 36.49C161.072 36.49 162.787 34.971 162.787 32.864C162.787 30.757 161.072 29.238 159.014 29.238C157.005 29.238 155.29 30.757 155.29 32.864C155.29 34.971 157.005 36.49 159.014 36.49Z" fill="url(#paint0_linear_103:2)"/>
</g>
<defs>
<filter id="filter0_d_103:2" x="0.312012" y="0.866943" width="166.475" height="43.623" filterUnits="userSpaceOnUse" color-interpolation-filters="sRGB">
<feFlood flood-opacity="0" result="BackgroundImageFix"/>
<feColorMatrix in="SourceAlpha" type="matrix" values="0 0 0 0 0 0 0 0 0 0 0 0 0 0 0 0 0 0 127 0" result="hardAlpha"/>
<feOffset dy="4"/>
<feGaussianBlur stdDeviation="2"/>
<feComposite in2="hardAlpha" operator="out"/>
<feColorMatrix type="matrix" values="0 0 0 0 0 0 0 0 0 0 0 0 0 0 0 0 0 0 0.25 0"/>
<feBlend mode="normal" in2="BackgroundImageFix" result="effect1_dropShadow_103:2"/>
<feBlend mode="normal" in="SourceGraphic" in2="effect1_dropShadow_103:2" result="shape"/>
</filter>
<linearGradient id="paint0_linear_103:2" x1="166" y1="1.02655e-05" x2="-0.455531" y2="40.1095" gradientUnits="userSpaceOnUse">
<stop stop-color="#A62688"/>
<stop offset="1" stop-color="#F1682C"/>
</linearGradient>
</defs>
</svg>
